<svg width="16" height="16" viewBox="0 0 16 16" fill="none" xmlns="http://www.w3.org/2000/svg">
<path d="M0.671283 8.00961C0.524714 4.15061 3.90486 0.584424 7.76774 0.538157C9.73656 0.370233 11.652 1.13479 13.1419 2.38175C12.5307 3.05377 11.9089 3.71802 11.2446 4.33989C9.93295 3.54298 8.35369 2.93567 6.82071 3.47503C4.34812 4.17908 2.85073 7.09849 3.76573 9.51736C4.52349 12.0437 7.59626 13.4301 10.0045 12.3688C11.2514 11.9223 12.0736 10.7718 12.4343 9.53548C11.0052 9.50701 9.57575 9.52481 8.14662 9.48533C8.14306 8.63504 8.1395 7.78798 8.14306 6.93769C10.5263 6.93413 12.9132 6.92701 15.3 6.94836C15.4466 9.03171 15.1392 11.2613 13.7848 12.9334C11.9302 15.3203 8.50382 16.0208 5.71642 15.0844C2.75819 14.1128 0.606896 11.1325 0.671283 8.00961Z" fill="#FEFEFE"/>
</svg>
